<mxfile host="app.diagrams.net" modified="2021-07-13T13:14:29.244Z" agent="5.0 (Macintosh; Intel Mac OS X 10_15_7) AppleWebKit/605.1.15 (KHTML, like Gecko) Version/14.0.3 Safari/605.1.15" etag="vjc5g8u12Qjz3RpQ-5Oi" version="14.8.6" type="github">
  <diagram id="BJypfzqBffK5gYWCxtIx" name="Page-1">
    <mxGraphModel dx="1892" dy="1278" grid="1" gridSize="10" guides="1" tooltips="1" connect="1" arrows="1" fold="1" page="1" pageScale="1" pageWidth="1169" pageHeight="827" math="0" shadow="0">
      <root>
        <mxCell id="0" />
        <mxCell id="1" parent="0" />
        <mxCell id="idKzwCrwrPOzfP5Qpobo-1" value="Airplane Controller" style="rounded=0;whiteSpace=wrap;html=1;" vertex="1" parent="1">
          <mxGeometry x="740" y="344" width="120" height="60" as="geometry" />
        </mxCell>
        <mxCell id="idKzwCrwrPOzfP5Qpobo-2" value="Airplane Controller" style="rounded=0;whiteSpace=wrap;html=1;" vertex="1" parent="1">
          <mxGeometry x="740" y="344" width="120" height="60" as="geometry" />
        </mxCell>
        <mxCell id="idKzwCrwrPOzfP5Qpobo-7" style="edgeStyle=orthogonalEdgeStyle;rounded=0;orthogonalLoop=1;jettySize=auto;html=1;entryX=0.5;entryY=0;entryDx=0;entryDy=0;" edge="1" parent="1" source="idKzwCrwrPOzfP5Qpobo-6" target="idKzwCrwrPOzfP5Qpobo-2">
          <mxGeometry relative="1" as="geometry" />
        </mxCell>
        <mxCell id="idKzwCrwrPOzfP5Qpobo-6" value="Airplane Input&lt;br&gt;" style="rounded=0;whiteSpace=wrap;html=1;" vertex="1" parent="1">
          <mxGeometry x="740" y="264" width="120" height="40" as="geometry" />
        </mxCell>
        <mxCell id="idKzwCrwrPOzfP5Qpobo-18" style="edgeStyle=orthogonalEdgeStyle;rounded=0;orthogonalLoop=1;jettySize=auto;html=1;entryX=0.25;entryY=1;entryDx=0;entryDy=0;" edge="1" parent="1" source="idKzwCrwrPOzfP5Qpobo-8" target="idKzwCrwrPOzfP5Qpobo-2">
          <mxGeometry relative="1" as="geometry">
            <Array as="points">
              <mxPoint x="630" y="444" />
              <mxPoint x="770" y="444" />
            </Array>
          </mxGeometry>
        </mxCell>
        <mxCell id="idKzwCrwrPOzfP5Qpobo-8" value="Aerodynamics" style="rounded=0;whiteSpace=wrap;html=1;" vertex="1" parent="1">
          <mxGeometry x="590" y="454" width="120" height="60" as="geometry" />
        </mxCell>
        <mxCell id="idKzwCrwrPOzfP5Qpobo-15" style="edgeStyle=orthogonalEdgeStyle;rounded=0;orthogonalLoop=1;jettySize=auto;html=1;" edge="1" parent="1" source="idKzwCrwrPOzfP5Qpobo-9">
          <mxGeometry relative="1" as="geometry">
            <mxPoint x="800" y="404" as="targetPoint" />
          </mxGeometry>
        </mxCell>
        <mxCell id="idKzwCrwrPOzfP5Qpobo-9" value="Engines&lt;br&gt;RPM/HP" style="rounded=0;whiteSpace=wrap;html=1;" vertex="1" parent="1">
          <mxGeometry x="740" y="454" width="120" height="60" as="geometry" />
        </mxCell>
        <mxCell id="idKzwCrwrPOzfP5Qpobo-14" style="edgeStyle=orthogonalEdgeStyle;rounded=0;orthogonalLoop=1;jettySize=auto;html=1;exitX=0.5;exitY=0;exitDx=0;exitDy=0;entryX=0.75;entryY=1;entryDx=0;entryDy=0;" edge="1" parent="1" source="idKzwCrwrPOzfP5Qpobo-12" target="idKzwCrwrPOzfP5Qpobo-2">
          <mxGeometry relative="1" as="geometry">
            <Array as="points">
              <mxPoint x="950" y="444" />
              <mxPoint x="830" y="444" />
            </Array>
          </mxGeometry>
        </mxCell>
        <mxCell id="idKzwCrwrPOzfP5Qpobo-12" value="Propeller&lt;br&gt;" style="rounded=0;whiteSpace=wrap;html=1;" vertex="1" parent="1">
          <mxGeometry x="890" y="454" width="120" height="60" as="geometry" />
        </mxCell>
        <mxCell id="idKzwCrwrPOzfP5Qpobo-19" style="edgeStyle=orthogonalEdgeStyle;rounded=0;orthogonalLoop=1;jettySize=auto;html=1;entryX=1;entryY=0.5;entryDx=0;entryDy=0;" edge="1" parent="1" source="idKzwCrwrPOzfP5Qpobo-13" target="idKzwCrwrPOzfP5Qpobo-2">
          <mxGeometry relative="1" as="geometry" />
        </mxCell>
        <mxCell id="idKzwCrwrPOzfP5Qpobo-13" value="Controll Surface&lt;br&gt;" style="rounded=0;whiteSpace=wrap;html=1;" vertex="1" parent="1">
          <mxGeometry x="890" y="344" width="120" height="60" as="geometry" />
        </mxCell>
        <mxCell id="idKzwCrwrPOzfP5Qpobo-21" style="edgeStyle=orthogonalEdgeStyle;rounded=0;orthogonalLoop=1;jettySize=auto;html=1;" edge="1" parent="1" source="idKzwCrwrPOzfP5Qpobo-20" target="idKzwCrwrPOzfP5Qpobo-2">
          <mxGeometry relative="1" as="geometry" />
        </mxCell>
        <mxCell id="idKzwCrwrPOzfP5Qpobo-20" value="Wheels&lt;br&gt;" style="rounded=0;whiteSpace=wrap;html=1;" vertex="1" parent="1">
          <mxGeometry x="580" y="344" width="120" height="60" as="geometry" />
        </mxCell>
        <mxCell id="idKzwCrwrPOzfP5Qpobo-37" style="edgeStyle=orthogonalEdgeStyle;rounded=0;orthogonalLoop=1;jettySize=auto;html=1;exitX=1;exitY=0.5;exitDx=0;exitDy=0;" edge="1" parent="1" source="idKzwCrwrPOzfP5Qpobo-22">
          <mxGeometry relative="1" as="geometry">
            <mxPoint x="740" y="394" as="targetPoint" />
            <Array as="points">
              <mxPoint x="720" y="434" />
            </Array>
          </mxGeometry>
        </mxCell>
        <mxCell id="idKzwCrwrPOzfP5Qpobo-22" value="UI&lt;br&gt;" style="rounded=0;whiteSpace=wrap;html=1;" vertex="1" parent="1">
          <mxGeometry x="300" y="404" width="120" height="60" as="geometry" />
        </mxCell>
        <mxCell id="idKzwCrwrPOzfP5Qpobo-30" style="edgeStyle=orthogonalEdgeStyle;rounded=0;orthogonalLoop=1;jettySize=auto;html=1;entryX=0.5;entryY=1;entryDx=0;entryDy=0;" edge="1" parent="1" source="idKzwCrwrPOzfP5Qpobo-23" target="idKzwCrwrPOzfP5Qpobo-22">
          <mxGeometry relative="1" as="geometry" />
        </mxCell>
        <mxCell id="idKzwCrwrPOzfP5Qpobo-32" style="edgeStyle=orthogonalEdgeStyle;rounded=0;orthogonalLoop=1;jettySize=auto;html=1;entryX=0.75;entryY=1;entryDx=0;entryDy=0;" edge="1" parent="1" source="idKzwCrwrPOzfP5Qpobo-24" target="idKzwCrwrPOzfP5Qpobo-22">
          <mxGeometry relative="1" as="geometry" />
        </mxCell>
        <mxCell id="idKzwCrwrPOzfP5Qpobo-24" value="Fuel" style="rounded=0;whiteSpace=wrap;html=1;" vertex="1" parent="1">
          <mxGeometry x="440" y="454" width="120" height="60" as="geometry" />
        </mxCell>
        <mxCell id="idKzwCrwrPOzfP5Qpobo-31" style="edgeStyle=orthogonalEdgeStyle;rounded=0;orthogonalLoop=1;jettySize=auto;html=1;entryX=0.25;entryY=1;entryDx=0;entryDy=0;" edge="1" parent="1" source="idKzwCrwrPOzfP5Qpobo-25" target="idKzwCrwrPOzfP5Qpobo-22">
          <mxGeometry relative="1" as="geometry" />
        </mxCell>
        <mxCell id="idKzwCrwrPOzfP5Qpobo-25" value="Tacomiter" style="rounded=0;whiteSpace=wrap;html=1;" vertex="1" parent="1">
          <mxGeometry x="160" y="454" width="120" height="60" as="geometry" />
        </mxCell>
        <mxCell id="idKzwCrwrPOzfP5Qpobo-35" style="edgeStyle=orthogonalEdgeStyle;rounded=0;orthogonalLoop=1;jettySize=auto;html=1;" edge="1" parent="1" source="idKzwCrwrPOzfP5Qpobo-26" target="idKzwCrwrPOzfP5Qpobo-22">
          <mxGeometry relative="1" as="geometry" />
        </mxCell>
        <mxCell id="idKzwCrwrPOzfP5Qpobo-26" value="Flaps" style="rounded=0;whiteSpace=wrap;html=1;" vertex="1" parent="1">
          <mxGeometry x="300" y="304" width="120" height="60" as="geometry" />
        </mxCell>
        <mxCell id="idKzwCrwrPOzfP5Qpobo-36" style="edgeStyle=orthogonalEdgeStyle;rounded=0;orthogonalLoop=1;jettySize=auto;html=1;entryX=0.75;entryY=0;entryDx=0;entryDy=0;" edge="1" parent="1" source="idKzwCrwrPOzfP5Qpobo-27" target="idKzwCrwrPOzfP5Qpobo-22">
          <mxGeometry relative="1" as="geometry" />
        </mxCell>
        <mxCell id="idKzwCrwrPOzfP5Qpobo-27" value="Airspeed" style="rounded=0;whiteSpace=wrap;html=1;" vertex="1" parent="1">
          <mxGeometry x="440" y="354" width="120" height="60" as="geometry" />
        </mxCell>
        <mxCell id="idKzwCrwrPOzfP5Qpobo-34" style="edgeStyle=orthogonalEdgeStyle;rounded=0;orthogonalLoop=1;jettySize=auto;html=1;entryX=0.25;entryY=0;entryDx=0;entryDy=0;" edge="1" parent="1" source="idKzwCrwrPOzfP5Qpobo-28" target="idKzwCrwrPOzfP5Qpobo-22">
          <mxGeometry relative="1" as="geometry" />
        </mxCell>
        <mxCell id="idKzwCrwrPOzfP5Qpobo-28" value="Throttle" style="rounded=0;whiteSpace=wrap;html=1;" vertex="1" parent="1">
          <mxGeometry x="160" y="354" width="120" height="60" as="geometry" />
        </mxCell>
        <mxCell id="idKzwCrwrPOzfP5Qpobo-23" value="Altimiter" style="rounded=0;whiteSpace=wrap;html=1;" vertex="1" parent="1">
          <mxGeometry x="300" y="504" width="120" height="60" as="geometry" />
        </mxCell>
      </root>
    </mxGraphModel>
  </diagram>
</mxfile>
